<svg xmlns="http://www.w3.org/2000/svg" xmlns:xlink="http://www.w3.org/1999/xlink" id="Layer_1" x="0" y="0" fill="none" stroke="currentColor" style="enable-background:new 0 0 185 170" stroke-width="2" version="1.1" viewBox="0 0 185 170" xml:space="preserve"><style type="text/css">.st0,.st1{fill:#fff;stroke:#3683dc;stroke-width:2}.st1{fill:none}.st2{fill:#3683dc}</style><g id="_x30_1_x5F_Streamline_x5F_Linode"><path id="Cloud" d="M122.7,115.3h25.9c18.4,0,33.2-14.9,33.2-33.3c0-14-8.6-25.9-20.7-30.8c-3.5-16.6-18.2-29-35.8-29 c-5.8,0-11.1,1.3-16,3.7c-8-14.1-23.1-23.6-40.5-23.6c-25.7,0-46.5,20.8-46.5,46.6c0,0.9,0,1.8,0.1,2.7c-11.8,5.1-20,16.9-20,30.5 c0,18.4,14.8,33.3,33.2,33.3h25.9" class="st0"/><g id="Server" transform="translate(59.846547, 39.636872)"><rect id="Rectangle-path" width="60.1" height="15.7" x="2.2" y="15.1" class="st1"/><polyline id="Shape" points="2.2 15.1 17.9 2 46.7 2 62.3 15.1" class="st1"/><ellipse id="Oval" cx="37.5" cy="23" class="st2" rx="1.3" ry="1.3"/><ellipse id="Oval_1_" cx="45.3" cy="23" class="st2" rx="1.3" ry="1.3"/><ellipse id="Oval_2_" cx="53.1" cy="23" class="st2" rx="1.3" ry="1.3"/><ellipse id="Oval_3_" cx="10.1" cy="23" class="st1" rx="2.6" ry="2.6"/><path id="Shape_1_" d="M62.3,30.8v10.5c0,2.9-2.3,5.3-5.2,5.3H7.4c-2.9,0-5.2-2.4-5.2-5.3V30.8" class="st1"/><ellipse id="Oval_4_" cx="37.5" cy="38.6" class="st2" rx="1.3" ry="1.3"/><ellipse id="Oval_5_" cx="45.3" cy="38.6" class="st2" rx="1.3" ry="1.3"/><ellipse id="Oval_6_" cx="53.1" cy="38.6" class="st2" rx="1.3" ry="1.3"/><ellipse id="Oval_7_" cx="10.1" cy="38.6" class="st1" rx="2.6" ry="2.6"/><path id="Shape_2_" d="M15.3,62.2h34" class="st1"/><path id="Shape_3_" d="M33.6,46.5v15.7" class="st1"/><path id="Shape_4_" d="M4.8,60.9c-0.7,0-1.3,0.6-1.3,1.3c0,0.7,0.6,1.3,1.3,1.3c0.7,0,1.3-0.6,1.3-1.3 C6.1,61.5,5.5,60.9,4.8,60.9z" class="st2"/><path id="Shape_5_" d="M10.1,60.9c-0.7,0-1.3,0.6-1.3,1.3c0,0.7,0.6,1.3,1.3,1.3c0.7,0,1.3-0.6,1.3-1.3 C11.3,61.5,10.7,60.9,10.1,60.9z" class="st2"/><path id="Shape_6_" d="M54.5,60.9c-0.7,0-1.3,0.6-1.3,1.3c0,0.7,0.6,1.3,1.3,1.3c0.7,0,1.3-0.6,1.3-1.3 C55.8,61.5,55.2,60.9,54.5,60.9z" class="st2"/><path id="Shape_7_" d="M59.7,60.9c-0.7,0-1.3,0.6-1.3,1.3c0,0.7,0.6,1.3,1.3,1.3c0.7,0,1.3-0.6,1.3-1.3 C61,61.5,60.4,60.9,59.7,60.9z" class="st2"/></g><ellipse id="Oval_8_" cx="123.7" cy="113.6" stroke="none" class="st3 imp" rx="31.4" ry="31.4"/><g id="Hand" transform="translate(96.214834, 86.648045)"><path id="Shape_8_" d="M22.4,27.6c0-2.8,2.3-5.1,5.1-5.1s5.1,2.3,5.1,5.1V48l15,5.1c3.4,1.1,4.5,5.1,3.7,8.5 l-3.4,18.7H20.7L7.2,59.9c-1.5-2.4-1.7-6.8,1.7-6.8s6.8,1.4,13.6,11.9L22.4,27.6L22.4,27.6z" class="st0"/><path id="Shape_9_" d="M52.9,26H42.7" class="st0"/><path id="Shape_10_" d="M46.1,9l-6.8,6.8" class="st0"/><path id="Shape_11_" d="M29.2,2.2v10.2" class="st0"/><path id="Shape_12_" d="M8.8,9l6.8,6.8" class="st0"/><path id="Shape_13_" d="M2,26h10.2" class="st0"/></g></g></svg>