<svg xmlns="http://www.w3.org/2000/svg" xmlns:xlink="http://www.w3.org/1999/xlink" width="48" height="48" version="1.1" viewBox="0 0 48 48"><title>LKE_dropdown</title><desc>Created with Sketch.</desc><g id="LKE_dropdown" fill="none" fill-rule="evenodd" stroke="none" stroke-width="1"><g id="linode"><g id="Oval-2"><g id="path-1-link" fill="#F4F4F4"><circle id="path-1" cx="24" cy="24" r="24"/></g><circle id="Oval" cx="24" cy="24" r="23" stroke="#F4F4F4" stroke-width="2"/></g></g><g id="LKE_icon" stroke="#939598" stroke-linecap="round" stroke-linejoin="round" transform="translate(12.000000, 12.000000)"><polygon id="Path" stroke-width=".875" points="12.5 2.426 8.291 0 4.082 2.426 4.082 2.426 8.291 4.851 8.291 4.851"/><polygon id="Path" stroke-width=".875" points="12.5 2.4 8.418 4.782 8.418 9.549 12.5 7.164"/><polygon id="Path" stroke-width=".875" points="4.09 2.4 4.09 7.164 8.172 9.549 8.172 4.782"/><polygon id="Path" stroke-width=".875" points="8.418 9.576 4.208 7.149 0 9.576 0 9.576 4.208 12 4.208 12"/><polygon id="Path" stroke-width=".875" points="8.163 9.702 4.082 12.085 4.082 16.851 8.163 14.468"/><polygon id="Path" stroke-width=".875" points="0 9.702 0 14.468 4.082 16.851 4.082 12.085"/><polygon id="Path" stroke-width=".875" points="12.5 16.725 8.291 14.298 4.082 16.725 4.082 16.725 8.291 19.149 8.291 19.149"/><polygon id="Path" stroke-width=".875" points="12.5 16.851 8.418 19.233 8.418 24 12.5 21.616"/><polygon id="Path" stroke-width=".875" points="4.082 16.851 4.082 21.616 8.163 24 8.163 19.233"/><polygon id="Path" stroke-width=".875" points="20.918 2.426 16.709 0 12.5 2.426 12.5 2.426 16.709 4.851 16.709 4.851"/><polygon id="Path" stroke-width=".875" points="20.918 2.4 16.837 4.782 16.837 9.549 20.918 7.164"/><polygon id="Path" stroke-width=".875" points="12.5 2.4 12.5 7.164 16.582 9.549 16.582 4.782"/><polygon id="Path" stroke-width=".875" points="20.918 16.725 16.709 14.298 12.5 16.725 12.5 16.725 16.709 19.149 16.709 19.149"/><polygon id="Path" stroke-width=".875" points="20.918 16.851 16.837 19.233 16.837 24 20.918 21.616"/><polygon id="Path" stroke-width=".875" points="12.5 16.851 12.5 21.616 16.582 24 16.582 19.233"/><polygon id="Path" stroke-width=".875" points="25 9.576 20.791 7.149 16.582 9.576 16.582 9.576 20.791 12 20.791 12"/><polygon id="Path" stroke-width=".875" points="25 9.702 20.918 12.085 20.918 16.851 25 14.468"/><polygon id="Path" stroke-width=".875" points="16.837 9.702 16.837 14.468 20.918 16.851 20.918 12.085"/><polygon id="Path" fill="#FFF" fill-rule="nonzero" stroke-width=".98" points="16.837 9.576 12.628 7.149 8.418 9.576 8.418 9.576 12.628 12 12.628 12"/><polygon id="Path" fill="#FFF" fill-rule="nonzero" stroke-width=".98" points="16.582 9.702 12.5 12.085 12.5 16.851 16.582 14.468"/><polygon id="Path" fill="#FFF" fill-rule="nonzero" stroke-width=".98" points="8.418 9.702 8.418 14.468 12.5 16.851 12.5 12.085"/></g></g></svg>