<svg xmlns="http://www.w3.org/2000/svg" xmlns:xlink="http://www.w3.org/1999/xlink" width="32" height="39" version="1.1" viewBox="0 0 32 39"><title>GitLab</title><desc>Created with Sketch.</desc><g id="GitLab" fill="none" fill-rule="evenodd" stroke="none" stroke-width="1"><g id="GitLab_Logo" fill="#939598" fill-rule="nonzero" transform="translate(0.000000, 5.000000)"><polygon id="Fill-4" points="16.009 29.509 16.009 29.509 21.897 11.388 10.121 11.388"/><polygon id="Fill-8" points="16.009 29.509 10.121 11.388 1.869 11.388"/><path id="Fill-12" d="M1.86948571,11.3880533 L1.86948571,11.3880533 L0.0802285714,16.8949486 C-0.0829714286,17.3971962 0.0957714286,17.9474438 0.523047619,18.2578438 L16.0093714,29.5093486 L1.86948571,11.3880533 Z"/><path id="Fill-16" d="M1.86948571,11.3880686 L10.1213714,11.3880686 L6.57500952,0.473782857 C6.39260952,-0.0878933333 5.59809524,-0.0877409524 5.41569524,0.473782857 L1.86948571,11.3880686 Z"/><polygon id="Fill-18" points="16.009 29.509 21.897 11.388 30.149 11.388"/><path id="Fill-20" d="M30.1492419,11.3880533 L30.1492419,11.3880533 L31.938499,16.8949486 C32.101699,17.3971962 31.9229562,17.9474438 31.49568,18.2578438 L16.0093562,29.5093486 L30.1492419,11.3880533 Z"/><path id="Fill-22" d="M30.1492419,11.3880686 L21.8973562,11.3880686 L25.4437181,0.473782857 C25.6261181,-0.0878933333 26.4206324,-0.0877409524 26.6030324,0.473782857 L30.1492419,11.3880686 Z"/></g></g></svg>