<svg xmlns="http://www.w3.org/2000/svg" xmlns:xlink="http://www.w3.org/1999/xlink" id="Layer_1" width="50" height="50" x="0" y="0" version="1.1" viewBox="0 0 1024 1024" xml:space="preserve" style="enable-background:new 0 0 1024 1024"><style type="text/css">.st0{fill:#10aa50}.st1{fill:#b8c4c2}.st2{fill:#12924f}</style><g><path d="M707.6,416.8c-48.9-215.6-150.9-273-176.7-313.6c-14.1-22.1-28.4-55.6-28.4-55.6c-1.4,19.1-3.9,31.2-20.2,45.8 C449.5,122.5,310.7,235.6,299,480.6C288.1,709,466.8,849.9,490.6,864.5c18.1,8.9,40.4,0.2,51-8c86.1-59.2,204-216.9,165.9-439.7" class="st0"/><path d="M509.8,742.8c-4.5,56.6-7.7,89.5-19.1,121.7c0,0,7.5,53.8,12.7,110.8h18.6c4.4-40.2,11.2-80,20.3-119.4 C518.3,844.1,510.7,792.4,509.8,742.8z" class="st1"/><path d="M542.4,856L542.4,856c-24.4-11.3-31.4-64-32.5-113.2c6-81.1,7.7-162.5,5.2-243.7c-1.3-42.6,0.6-395-10.5-446.6 c4.5,10.1,15.4,33.8,26.3,50.7c26,40.6,127.9,98,176.7,313.6C745.6,639,628.4,796.5,542.4,856z" class="st2"/></g></svg>