<svg xmlns="http://www.w3.org/2000/svg" xmlns:xlink="http://www.w3.org/1999/xlink" width="50" height="50" version="1.1" viewBox="0 0 50 50"><desc>Domains</desc><defs><circle id="path-1" cx="24" cy="24" r="24"/></defs><g id="ui-kit---1440" fill="none" fill-rule="evenodd" stroke="none" stroke-width="1"><g id="sticker-sheet" transform="translate(-267.000000, -93.000000)"><g id="create:dropdown" transform="translate(251.000000, 73.000000)"><g id="volume"><g id="icon" transform="translate(16.000000, 20.000000)"><g id="Oval-2"><g id="path-1-link" fill="#F4F4F4"><circle id="path-1" cx="24" cy="24" r="24" class="circle"/></g><circle cx="24" cy="24" r="23" stroke="#F4F4F4" stroke-width="2" class="outerCircle"/></g><g id="Group-14" stroke="#939598" class="insidePath" transform="translate(7.000000, 7.500000)"><path id="Stroke-8230" d="M33.1441408,16.938375 C33.1441408,25.969625 25.8623026,33.292375 16.8795352,33.292375 C7.89817824,33.292375 0.705194485,25.6777917 0.705194485,16.645125 C0.705194485,7.851875 7.57237839,1.07454167 16.2279355,0.724625 C16.4606497,0.713291667 16.6961846,0.709041667 16.9317196,0.709041667 C25.9130766,0.709041667 33.1441408,7.907125 33.1441408,16.938375 L33.1441408,16.938375 Z"/><path id="Stroke-8231" d="M16.2263841,0.7242 C7.76405025,9.93253333 7.76405025,21.9458667 16.2263841,33.2792"/><path id="Stroke-8232" d="M17.636773,0.7242 C26.0991069,9.93253333 26.0991069,21.9430333 17.636773,33.2763667"/><path id="Stroke-8233" d="M2.82077794,24.7612083 L31.1160015,24.7612083"/><path id="Stroke-8234" d="M3.39381898,7.76120833 L30.2786535,7.76120833"/><path id="Stroke-8235" d="M0.705194485,16.2612083 L33.0552863,16.2612083"/></g></g></g></g></g></g></svg>