<svg xmlns="http://www.w3.org/2000/svg" xmlns:xlink="http://www.w3.org/1999/xlink" width="50" height="50" version="1.1" viewBox="0 0 50 50"><desc>NodeBalancers</desc><defs><circle id="path-1" cx="24" cy="24" r="24"/></defs><g id="ui-kit---1440" fill="none" fill-rule="evenodd" stroke="none" stroke-width="1"><g id="sticker-sheet" transform="translate(-267.000000, -93.000000)"><g id="create:dropdown" transform="translate(251.000000, 73.000000)"><g id="nodebalancer"><g id="icon" transform="translate(16.000000, 20.000000)"><g id="Oval-2"><g id="path-1-link" fill="#F4F4F4"><circle id="path-1" cx="24" cy="24" r="24" class="circle"/></g><circle cx="24" cy="24" r="23" stroke="#F4F4F4" stroke-width="2" class="outerCircle"/></g><g id="Group-13" stroke="#939598" stroke-linejoin="round" class="insidePath" transform="translate(12.000000, 11.000000)"><path id="Stroke-2697" stroke-linecap="square" d="M11.9791667,6.72916667 L11.9791667,20.2708333"/><path id="Stroke-2698" stroke-linecap="square" d="M3.125,20.2708333 C3.125,16.8197917 5.92291667,14.0208333 9.375,14.0208333 L15.625,14.0208333 C19.0760417,14.0208333 21.875,16.8197917 21.875,20.2708333"/><polygon id="Stroke-2699" points="14.854 6.521 8.854 6.521 8.854 .521 14.854 .521"/><polygon id="Stroke-2700" points="15.104 25.479 9.896 25.479 9.896 20.271 15.104 20.271"/><polygon id="Stroke-2701" points="5.729 25.479 .521 25.479 .521 20.271 5.729 20.271"/><polygon id="Stroke-2702" points="24.479 25.479 19.271 25.479 19.271 20.271 24.479 20.271"/></g></g></g></g></g></g></svg>